<svg width="26" height="26" viewBox="0 0 26 26" fill="none" xmlns="http://www.w3.org/2000/svg">
<path d="M5.77116 14.1949L5.77141 14.1952C7.17508 15.7637 8.75044 17.348 10.4986 18.9477C10.4987 18.9478 10.4988 18.9479 10.4988 18.9479L12.2231 20.5223C12.4507 20.73 12.6965 20.825 13 20.825C13.3035 20.825 13.5493 20.73 13.7769 20.5223L13.7773 20.5219L15.4773 18.9719L15.482 18.9676L15.482 18.9676C17.261 17.3698 18.846 15.7844 20.2386 14.2115C21.5347 12.7478 22.15 11.1848 22.15 9.5C22.15 8.14498 21.7051 7.05714 20.824 6.17604C19.9429 5.29494 18.855 4.85 17.5 4.85C16.7413 4.85 16.0336 5.00988 15.3668 5.3288C14.6896 5.65336 14.1197 6.09263 13.6489 6.64905L13 7.41591L12.3511 6.64905C11.8803 6.09263 11.3104 5.65336 10.6332 5.3288L5.77116 14.1949ZM5.77116 14.1949C4.46823 12.7402 3.85 11.1829 3.85 9.5M5.77116 14.1949L3.85 9.5M3.85 9.5C3.85 8.14497 4.29494 7.05714 5.17604 6.17604M3.85 9.5L5.17604 6.17604M5.17604 6.17604C6.05714 5.29494 7.14498 4.85 8.5 4.85M5.17604 6.17604L8.5 4.85M8.5 4.85C9.2586 4.85 9.96632 5.00985 10.6331 5.32872L8.5 4.85Z" stroke="white" stroke-width="1.7"/>
</svg>
