<svg width="20" height="18" viewBox="0 0 20 18" xmlns="http://www.w3.org/2000/svg">
<path d="M12.2157 1.01306C11.4948 1.35853 10.8851 1.82802 10.3817 2.42297L10 2.87406L9.61831 2.42297C9.11484 1.82796 8.50505 1.35845 7.78407 1.01297L12.2157 1.01306ZM12.2157 1.01306C12.9305 0.671182 13.69 0.5 14.5 0.5C15.9422 0.5 17.1208 0.977907 18.0714 1.92855C19.0221 2.8792 19.5 4.05783 19.5 5.5C19.5 7.28025 18.8464 8.92368 17.5007 10.4435C16.0981 12.0276 14.5035 13.6224 12.7159 15.228L12.7159 15.228L12.7131 15.2305L11.0131 16.7805L11.0129 16.7808C10.7212 17.0471 10.3913 17.175 10 17.175C9.60874 17.175 9.27882 17.0471 8.98713 16.7808L7.26255 15.2061C5.5067 13.5994 3.92294 12.0068 2.51059 10.4286L2.51045 10.4284C1.15711 8.91746 0.5 7.27917 0.5 5.5C0.5 4.05783 0.977907 2.8792 1.92855 1.92855C2.8792 0.977907 4.05783 0.5 5.5 0.5C6.30988 0.5 7.06926 0.671132 7.78395 1.01291L12.2157 1.01306Z" />
</svg>
