<svg viewBox="0 0 26 26" xmlns="http://www.w3.org/2000/svg">
<path d="M13 4.875C14.607 4.875 16.1779 5.35152 17.514 6.24431C18.8502 7.1371 19.8916 8.40605 20.5065 9.8907C21.1215 11.3753 21.2824 13.009 20.9689 14.5851C20.6554 16.1612 19.8815 17.6089 18.7452 18.7452C17.6089 19.8815 16.1612 20.6554 14.5851 20.9689C13.009 21.2824 11.3753 21.1215 9.8907 20.5065C8.40605 19.8916 7.1371 18.8502 6.24431 17.514C5.35152 16.1779 4.875 14.607 4.875 13C4.875 12.7845 4.7894 12.5778 4.63702 12.4255C4.48465 12.2731 4.27799 12.1875 4.0625 12.1875C3.84701 12.1875 3.64035 12.2731 3.48798 12.4255C3.3356 12.5778 3.25 12.7845 3.25 13C3.24995 15.2324 4.016 17.3973 5.42017 19.1328C6.82433 20.8683 8.78155 22.0695 10.9648 22.5354C13.1481 23.0014 15.4251 22.7041 17.4155 21.6931C19.4059 20.6821 20.989 19.0187 21.9004 16.9807C22.8119 14.9428 22.9963 12.6539 22.423 10.4963C21.8497 8.33875 20.5533 6.44327 18.7505 5.12659C16.9477 3.80991 14.7477 3.15177 12.518 3.26214C10.2883 3.37252 8.16396 4.24471 6.5 5.733V4.0625C6.5 3.84701 6.4144 3.64035 6.26202 3.48798C6.10965 3.3356 5.90299 3.25 5.6875 3.25C5.47201 3.25 5.26535 3.3356 5.11298 3.48798C4.9606 3.64035 4.875 3.84701 4.875 4.0625V8.9375C4.875 9.15299 4.9606 9.35965 5.11298 9.51202C5.26535 9.6644 5.47201 9.75 5.6875 9.75H8.9375C9.15299 9.75 9.35965 9.6644 9.51202 9.51202C9.6644 9.35965 9.75 9.15299 9.75 8.9375C9.75 8.72201 9.6644 8.51535 9.51202 8.36298C9.35965 8.2106 9.15299 8.125 8.9375 8.125H6.5C7.25612 7.11516 8.23734 6.29558 9.3657 5.7314C10.4941 5.16722 11.7385 4.87399 13 4.875ZM13.0016 8.9375C13.0016 8.72201 12.916 8.51535 12.7636 8.36298C12.6113 8.2106 12.4046 8.125 12.1891 8.125C11.9736 8.125 11.767 8.2106 11.6146 8.36298C11.4622 8.51535 11.3766 8.72201 11.3766 8.9375V13.8125C11.3766 14.028 11.4622 14.2347 11.6146 14.387C11.767 14.5394 11.9736 14.625 12.1891 14.625H15.4391C15.6546 14.625 15.8613 14.5394 16.0136 14.387C16.166 14.2347 16.2516 14.028 16.2516 13.8125C16.2516 13.597 16.166 13.3903 16.0136 13.238C15.8613 13.0856 15.6546 13 15.4391 13H13.0016V8.9375Z" />
</svg>
