<svg width="20" height="21" viewBox="0 0 20 21" xmlns="http://www.w3.org/2000/svg">
<path d="M11.3 0.870833C10.925 0.589552 10.4688 0.4375 10 0.4375C9.5312 0.4375 9.07504 0.589552 8.7 0.870833L1.11667 6.55833C0.847575 6.76015 0.629168 7.02185 0.478741 7.3227C0.328314 7.62356 0.25 7.9553 0.25 8.29167V18.5833C0.25 19.158 0.478273 19.7091 0.884602 20.1154C1.29093 20.5217 1.84203 20.75 2.41667 20.75H6.64167C6.95772 20.75 7.26082 20.6245 7.4843 20.401C7.70778 20.1775 7.83333 19.8744 7.83333 19.5583V16.4167C7.83333 15.842 8.06161 15.2909 8.46794 14.8846C8.87426 14.4783 9.42536 14.25 10 14.25C10.5746 14.25 11.1257 14.4783 11.5321 14.8846C11.9384 15.2909 12.1667 15.842 12.1667 16.4167V19.5583C12.1667 19.8744 12.2922 20.1775 12.5157 20.401C12.7392 20.6245 13.0423 20.75 13.3583 20.75H17.5833C18.158 20.75 18.7091 20.5217 19.1154 20.1154C19.5217 19.7091 19.75 19.158 19.75 18.5833V8.29167C19.75 7.9553 19.6717 7.62356 19.5213 7.3227C19.3708 7.02185 19.1524 6.76015 18.8833 6.55833L11.3 0.870833Z" />
</svg>
