<svg viewBox="0 0 18 18" xmlns="http://www.w3.org/2000/svg">
<path fill-rule="evenodd" clip-rule="evenodd" d="M9 15.75L9.531 16.2795C9.46132 16.3495 9.37851 16.405 9.28732 16.4428C9.19613 16.4807 9.09837 16.5002 8.99963 16.5002C8.90089 16.5002 8.80312 16.4807 8.71193 16.4428C8.62074 16.405 8.53793 16.3495 8.46825 16.2795L8.46375 16.2743L8.451 16.2615L8.4045 16.2142C8.14012 15.9419 7.88008 15.6654 7.6245 15.3848C6.9828 14.6816 6.36835 13.9541 5.7825 13.2037C5.1135 12.3412 4.4295 11.3663 3.90975 10.4032C3.40125 9.459 3 8.436 3 7.5C3 4.09575 5.694 1.5 9 1.5C12.306 1.5 15 4.09575 15 7.5C15 8.436 14.5988 9.459 14.0903 10.4025C13.5705 11.367 12.8873 12.3412 12.2175 13.2037C11.398 14.2535 10.5228 15.2584 9.5955 16.2142L9.549 16.2615L9.53625 16.2743L9.53175 16.2787L9 15.75ZM9 9.75C9.59674 9.75 10.169 9.51295 10.591 9.09099C11.0129 8.66903 11.25 8.09674 11.25 7.5C11.25 6.90326 11.0129 6.33097 10.591 5.90901C10.169 5.48705 9.59674 5.25 9 5.25C8.40326 5.25 7.83097 5.48705 7.40901 5.90901C6.98705 6.33097 6.75 6.90326 6.75 7.5C6.75 8.09674 6.98705 8.66903 7.40901 9.09099C7.83097 9.51295 8.40326 9.75 9 9.75Z" />
</svg>
