<svg viewBox="0 0 93 69" fill="none" xmlns="http://www.w3.org/2000/svg">
<path d="M91.5531 36.8791L76.0932 39.122C76.0658 39.1265 76.0405 39.1391 76.0205 39.1583L64.7257 50.1186C64.7026 50.1423 64.6897 50.1741 64.6897 50.2071C64.6897 50.2402 64.7026 50.272 64.7257 50.2957L72.7966 59.2991C72.8139 59.3176 72.8252 59.3409 72.8291 59.3659C72.833 59.3909 72.8293 59.4165 72.8186 59.4394C72.8078 59.4623 72.7905 59.4815 72.7688 59.4945C72.747 59.5076 72.7219 59.5138 72.6966 59.5125L64.0163 59.2991C63.9952 59.2995 63.9743 59.2942 63.956 59.2838C63.9376 59.2734 63.9223 59.2583 63.9118 59.2401L60.2741 53.374C60.2648 53.358 60.252 53.3442 60.2366 53.3339C60.2212 53.3235 60.2037 53.3167 60.1853 53.3141C60.1669 53.3115 60.1481 53.313 60.1305 53.3187C60.1128 53.3244 60.0966 53.334 60.0831 53.3468L53.3717 59.2491C53.3611 59.2598 53.3482 59.2681 53.3341 59.2736C53.3201 59.2791 53.305 59.2816 53.2899 59.2809L41.2221 59.458C41.1945 59.459 41.1674 59.4511 41.1448 59.4355C41.1221 59.4198 41.1052 59.3973 41.0965 59.3712C41.0878 59.3451 41.0878 59.3169 41.0965 59.2908C41.1052 59.2647 41.1221 59.2421 41.1448 59.2264L64.7257 41.5874C64.7479 41.5719 64.7647 41.5498 64.7735 41.5242C64.7823 41.4985 64.7827 41.4707 64.7745 41.4449C64.7664 41.419 64.7502 41.3965 64.7284 41.3805C64.7065 41.3644 64.68 41.3558 64.6529 41.3558L43.8093 41.2196C43.7843 41.218 43.7603 41.2092 43.74 41.1944C43.7198 41.1795 43.7043 41.1592 43.6952 41.1359C43.6861 41.1125 43.6839 41.087 43.6888 41.0625C43.6937 41.0379 43.7056 41.0152 43.7229 40.9972L48.8565 35.8212C48.8754 35.8029 48.8882 35.7792 48.8931 35.7534C48.8979 35.7275 48.8947 35.7008 48.8837 35.6769C48.8727 35.653 48.8546 35.6331 48.8318 35.6199C48.809 35.6067 48.7827 35.6009 48.7565 35.6033L3.96373 37.206C3.9416 37.2074 3.9195 37.2029 3.89962 37.1932C3.87973 37.1834 3.86276 37.1686 3.85036 37.1502C3.83796 37.1319 3.83055 37.1106 3.8289 37.0886C3.82726 37.0665 3.83141 37.0444 3.84095 37.0244L7.31488 29.7599C7.32511 29.7384 7.34119 29.7202 7.36129 29.7073C7.38139 29.6945 7.4047 29.6875 7.42856 29.6873L60.5106 28.9608C60.5355 28.9604 60.56 28.9674 60.581 28.9808C60.602 28.9941 60.6186 29.0134 60.6288 29.0361C60.6389 29.0588 60.6422 29.084 60.6382 29.1086C60.6341 29.1331 60.623 29.1559 60.6061 29.1742L56.9684 33.2605C56.9521 33.2779 56.9411 33.2995 56.9365 33.3229C56.9319 33.3463 56.9341 33.3705 56.9426 33.3927C56.9511 33.415 56.9657 33.4344 56.9848 33.4487C57.0038 33.4631 57.0265 33.4718 57.0503 33.4739L91.5668 36.6521C91.5859 36.6649 91.6014 36.6824 91.6116 36.703C91.6219 36.7236 91.6266 36.7465 91.6252 36.7695C91.6238 36.7925 91.6164 36.8147 91.6038 36.8339C91.5911 36.8531 91.5737 36.8687 91.5531 36.8791Z" fill="white"/>
<path d="M72.683 59.9665L64.0073 59.7531C63.9107 59.7508 63.8161 59.7248 63.732 59.6772C63.6479 59.6297 63.5769 59.5622 63.5253 59.4807L60.0695 53.9415L53.6309 59.5942C53.5279 59.6883 53.3932 59.7402 53.2536 59.7395L41.1903 59.9165C41.0661 59.9206 40.944 59.8843 40.8423 59.8131C40.7406 59.7418 40.6648 59.6395 40.6264 59.5215C40.5882 59.4048 40.5874 59.2792 40.6241 59.162C40.6607 59.0448 40.7331 58.9419 40.8311 58.8677L63.6662 41.8053L43.8094 41.6736C43.6942 41.6719 43.5821 41.6365 43.4868 41.572C43.3915 41.5075 43.3171 41.4166 43.2728 41.3104C43.2282 41.2046 43.2164 41.0878 43.2391 40.9753C43.2618 40.8627 43.3179 40.7596 43.4001 40.6793L47.9472 36.0845L3.97287 37.66C3.87233 37.6639 3.77249 37.6417 3.6831 37.5955C3.59372 37.5494 3.51782 37.4809 3.46286 37.3968C3.40789 37.3126 3.37572 37.2157 3.36947 37.1154C3.36322 37.0151 3.38313 36.9149 3.42722 36.8246L6.89661 29.5601C6.94369 29.4613 7.01774 29.3778 7.11025 29.3192C7.20275 29.2605 7.30993 29.2292 7.4195 29.2287L60.5015 28.5068C60.6135 28.5069 60.7231 28.539 60.8173 28.5994C60.9116 28.6597 60.9866 28.7458 61.0335 28.8473C61.0806 28.9496 61.0967 29.0635 61.0797 29.1749C61.0627 29.2862 61.0135 29.3901 60.938 29.4739L57.7142 33.1061L91.585 36.2026C91.7278 36.2138 91.8613 36.2776 91.9596 36.3817C92.058 36.4857 92.114 36.6226 92.117 36.7656C92.1208 36.9086 92.072 37.0481 91.9798 37.1576C91.8877 37.2672 91.7586 37.3393 91.6168 37.3604L76.2569 39.5896L65.2441 50.2593L73.1059 59.0266C73.1831 59.1114 73.2335 59.2172 73.2507 59.3305C73.2679 59.4439 73.2511 59.5598 73.2025 59.6636C73.1539 59.7675 73.0756 59.8547 72.9775 59.9142C72.8794 59.9738 72.7659 60.003 72.6512 59.9983L72.683 59.9665ZM64.1846 58.8496L71.9373 59.0403L64.3665 50.5998C64.2661 50.4875 64.213 50.3408 64.218 50.1903C64.2231 50.0398 64.286 49.8971 64.3938 49.7917L75.7113 38.8314C75.7972 38.7452 75.909 38.6895 76.0296 38.6725L88.7613 36.8246L56.9957 33.9188C56.8882 33.9095 56.7855 33.8701 56.6994 33.805C56.6133 33.7399 56.5474 33.6519 56.5092 33.551C56.469 33.4513 56.4574 33.3424 56.4759 33.2365C56.4944 33.1306 56.5421 33.0319 56.6138 32.9517L59.7967 29.4012L7.66961 30.105L4.51397 36.7111L48.7747 35.1265C48.8914 35.1207 49.007 35.1507 49.1062 35.2123C49.2053 35.274 49.2833 35.3645 49.3295 35.4716C49.377 35.5785 49.3912 35.6972 49.3701 35.8122C49.349 35.9272 49.2936 36.0332 49.2112 36.1163L44.596 40.7656L64.6393 40.92C64.7616 40.9215 64.8804 40.9612 64.979 41.0335C65.0776 41.1059 65.1511 41.2072 65.1892 41.3233C65.2273 41.4394 65.2281 41.5644 65.1914 41.681C65.1548 41.7976 65.0826 41.8997 64.9849 41.9733L42.1815 59.013L53.1217 58.8541L59.724 53.0244C59.7857 52.9705 59.8581 52.9301 59.9364 52.9059C60.0147 52.8816 60.0972 52.874 60.1787 52.8836C60.2625 52.8953 60.3426 52.9254 60.4134 52.9717C60.4841 53.0181 60.5437 53.0795 60.5879 53.1515L64.1846 58.8496Z" fill="white"/>
<path d="M17.4366 10.3138L16.6409 4.17989C16.639 4.16187 16.6408 4.14364 16.6463 4.12637C16.6518 4.10909 16.6608 4.09315 16.6728 4.07951C16.6847 4.06587 16.6994 4.05484 16.7158 4.04711C16.7322 4.03938 16.75 4.03513 16.7682 4.0346L23.4023 3.90293C23.4216 3.90248 23.4407 3.90641 23.4582 3.91443C23.4758 3.92244 23.4913 3.93434 23.5035 3.94921C23.5158 3.96407 23.5245 3.98153 23.529 4.00025C23.5335 4.01898 23.5337 4.03848 23.5296 4.0573L22.2564 10.1413C22.2513 10.1694 22.2369 10.1951 22.2155 10.214C22.194 10.233 22.1668 10.2441 22.1382 10.2457L17.5912 10.4273C17.5734 10.4313 17.5551 10.4314 17.5373 10.4277C17.5195 10.4239 17.5027 10.4164 17.488 10.4057C17.4734 10.3949 17.4612 10.3812 17.4523 10.3653C17.4435 10.3495 17.4381 10.3319 17.4366 10.3138Z" fill="white"/>
<path d="M17.5502 10.8814C17.4082 10.8824 17.2708 10.8311 17.1642 10.7373C17.0577 10.6435 16.9895 10.5137 16.9727 10.3729L16.177 4.23894C16.1659 4.15792 16.1724 4.07548 16.1959 3.99715C16.2195 3.91883 16.2595 3.84646 16.3135 3.78491C16.3671 3.72367 16.4326 3.67398 16.5061 3.63886C16.5796 3.60373 16.6594 3.58391 16.7408 3.58061L23.3795 3.44893C23.4667 3.44698 23.5531 3.46524 23.632 3.50226C23.7109 3.53929 23.7801 3.59408 23.8342 3.66233C23.8899 3.72978 23.9294 3.80897 23.9499 3.89391C23.9704 3.97886 23.9712 4.06734 23.9525 4.15267L22.6793 10.2367C22.6506 10.3615 22.5817 10.4735 22.4831 10.5555C22.3846 10.6375 22.2618 10.685 22.1336 10.6907L17.5639 10.8723L17.5502 10.8814ZM17.1274 4.48412L17.8367 9.96426L21.8517 9.8008L22.9885 4.35245L17.1274 4.48412Z" fill="white"/>
<path d="M32.6828 4.04826L26.317 3.97107C26.2877 3.97121 26.2592 3.98112 26.2361 3.99921C26.2131 4.0173 26.1967 4.04254 26.1896 4.07096L24.8255 10.0051C24.8206 10.0242 24.8201 10.0443 24.8243 10.0636C24.8284 10.0829 24.837 10.101 24.8494 10.1164C24.8617 10.1318 24.8775 10.1441 24.8955 10.1524C24.9134 10.1607 24.9331 10.1647 24.9529 10.164L30.1365 10.1232C30.161 10.1231 30.1849 10.1157 30.2051 10.102C30.2254 10.0882 30.2411 10.0687 30.2501 10.046L32.801 4.22987C32.8103 4.21025 32.8145 4.18857 32.8131 4.16689C32.8116 4.14522 32.8046 4.12428 32.7928 4.10607C32.7809 4.08785 32.7646 4.07297 32.7453 4.06285C32.7261 4.05273 32.7046 4.04771 32.6828 4.04826Z" fill="white"/>
<path d="M24.9483 10.6181C24.8602 10.619 24.7729 10.5999 24.6933 10.5622C24.6136 10.5246 24.5435 10.4693 24.4883 10.4007C24.4332 10.332 24.3943 10.2518 24.3747 10.1659C24.3552 10.0801 24.3554 9.99096 24.3754 9.90523L25.7395 3.97106C25.7701 3.84216 25.8432 3.7273 25.9472 3.64495C26.0511 3.56259 26.1797 3.51753 26.3124 3.51703L32.6783 3.59422C32.7744 3.59598 32.8687 3.62134 32.9527 3.66806C33.0368 3.71477 33.1081 3.7814 33.1602 3.8621C33.2132 3.94259 33.245 4.03505 33.253 4.13101C33.2609 4.22697 33.2447 4.32339 33.2057 4.41147L30.6548 10.2276C30.6093 10.3308 30.5349 10.4187 30.4405 10.4808C30.3461 10.5428 30.2358 10.5763 30.1228 10.5772L24.9392 10.6181H24.9483ZM26.5807 4.44325L25.3575 9.71907L29.9046 9.68276L32.1781 4.51135L26.5807 4.44325Z" fill="white"/>
<path d="M49.0066 12.4251L9.07003 13.0698C9.04742 13.0705 9.02541 13.0771 9.00623 13.0891C8.98705 13.1011 8.9714 13.1179 8.96091 13.1379L4.1638 21.9779C4.15247 21.9975 4.14659 22.0197 4.14673 22.0423C4.14688 22.0649 4.15305 22.0871 4.16463 22.1065C4.17621 22.126 4.19278 22.1419 4.21262 22.1529C4.23245 22.1638 4.25484 22.1692 4.27747 22.1686L12.7304 22.1277C12.7543 22.1275 12.7776 22.1205 12.7977 22.1077C12.8178 22.0948 12.8339 22.0766 12.8441 22.0551L14.2082 19.3536C14.2184 19.3321 14.2345 19.3138 14.2546 19.301C14.2747 19.2882 14.298 19.2812 14.3219 19.2809L45.6009 18.3729C45.6228 18.3732 45.6443 18.3789 45.6634 18.3896C45.6825 18.4003 45.6987 18.4156 45.7104 18.434C45.7221 18.4525 45.7291 18.4736 45.7306 18.4954C45.7321 18.5173 45.7282 18.5391 45.7191 18.559L43.9003 22.2503C43.891 22.2706 43.8871 22.2928 43.8888 22.315C43.8906 22.3372 43.8979 22.3586 43.9102 22.3772C43.9224 22.3958 43.9392 22.411 43.959 22.4214C43.9787 22.4317 44.0007 22.4369 44.023 22.4365L50.4844 22.0914C50.5108 22.0894 50.536 22.0797 50.557 22.0636C50.578 22.0474 50.5938 22.0256 50.6026 22.0006L52.144 17.1561C52.1518 17.139 52.1559 17.1204 52.1559 17.1016C52.1559 17.0828 52.1518 17.0642 52.144 17.0471L49.0611 12.4024" fill="white"/>
<path d="M43.9776 22.9132C43.8804 22.9126 43.7849 22.8883 43.6993 22.8424C43.6137 22.7965 43.5406 22.7304 43.4865 22.6498C43.43 22.5645 43.3974 22.4657 43.3918 22.3636C43.3862 22.2614 43.4079 22.1597 43.4547 22.0687L45.0507 18.8632L14.5128 19.7486L13.2488 22.2775C13.2011 22.3733 13.1279 22.454 13.0373 22.5109C12.9466 22.5677 12.842 22.5985 12.7349 22.5999L4.28204 22.6407C4.18101 22.6411 4.08162 22.6152 3.99366 22.5656C3.90569 22.516 3.83219 22.4444 3.78035 22.3578C3.72851 22.2712 3.70013 22.1727 3.69801 22.0718C3.69588 21.971 3.72008 21.8713 3.76822 21.7826L8.56533 12.9381C8.61471 12.8472 8.68755 12.771 8.77628 12.7175C8.86501 12.664 8.96641 12.6352 9.07004 12.634L49.002 11.9711C49.0785 11.9699 49.1539 11.9881 49.2215 12.0238C49.2891 12.0595 49.3465 12.1116 49.3885 12.1754L52.4487 16.8156C52.4975 16.8881 52.529 16.9708 52.5409 17.0574C52.5527 17.1439 52.5445 17.2321 52.5169 17.315L50.9936 22.1504C50.9578 22.2628 50.8886 22.3616 50.7952 22.4338C50.7018 22.506 50.5887 22.5481 50.4707 22.5545L44.0049 22.9041L43.9776 22.9132ZM45.5872 17.9416C45.6844 17.9413 45.7801 17.9658 45.8652 18.0127C45.9503 18.0595 46.0221 18.1272 46.0737 18.2094C46.1298 18.2932 46.1624 18.3905 46.168 18.4911C46.1736 18.5918 46.152 18.692 46.1056 18.7815L44.5187 21.9597L50.1979 21.6555L51.6211 17.1742L48.7656 12.87L9.25193 13.5238L4.80493 21.6964H12.5258L13.7853 19.172C13.833 19.0782 13.905 18.9989 13.9938 18.9422C14.0825 18.8855 14.1848 18.8536 14.29 18.8496L45.569 17.9416H45.5872Z" fill="white"/>
<path d="M36.234 7.92108L35.361 6.17761C35.352 6.15841 35.3474 6.13749 35.3474 6.11631C35.3474 6.09514 35.352 6.07422 35.361 6.05502L38.3939 0.520396C38.4093 0.492387 38.4344 0.470956 38.4646 0.460095C38.4947 0.449234 38.5277 0.449695 38.5576 0.461384L42.7454 2.15945C42.7739 2.17237 42.7968 2.195 42.8102 2.22328C42.8235 2.25157 42.8263 2.28365 42.8181 2.31382L41.1266 8.39328C41.1214 8.41341 41.1112 8.43188 41.0969 8.44697C41.0825 8.46206 41.0646 8.47328 41.0448 8.47955L39.226 9.12426" fill="white"/>
<path d="M39.3533 9.55105L39.0531 8.69293L40.7356 8.10724L42.3043 2.47273L38.6667 0.992589L35.8566 6.12313L36.6523 7.71676L35.8429 8.12539L34.9654 6.37739C34.9238 6.29421 34.9021 6.2025 34.9021 6.10951C34.9021 6.01652 34.9238 5.9248 34.9654 5.84162L37.9982 0.302469C38.067 0.176911 38.1796 0.0810708 38.3147 0.0333183C38.4498 -0.0144343 38.5978 -0.0107459 38.7303 0.0436686L42.9181 1.74173C43.0507 1.79553 43.1589 1.89583 43.2226 2.02377C43.2862 2.15171 43.3008 2.29845 43.2637 2.4364L41.5677 8.52948C41.5426 8.61949 41.4959 8.70206 41.4317 8.77007C41.3676 8.83809 41.2878 8.88952 41.1994 8.91994L39.3533 9.55105Z" fill="#543AE8"/>
<path d="M33.6195 46.6952C31.5551 41.9824 38.212 41.9597 41.0311 36.6294C43.5502 31.8712 39.2805 26.214 38.6439 25.4194C38.6345 25.4067 38.6227 25.396 38.609 25.3879C38.5954 25.3799 38.5803 25.3746 38.5646 25.3725C38.5489 25.3704 38.533 25.3714 38.5177 25.3756C38.5024 25.3798 38.4881 25.3869 38.4757 25.3967C35.3746 27.6669 20.9378 31.7985 21.8972 20.6022L21.9199 20.1481C20.437 20.5732 19.0867 21.368 17.9961 22.4577C16.9055 23.5474 16.1106 24.8963 15.686 26.3774C13.99 32.1618 17.8413 36.4478 13.076 38.391C0.608028 43.4671 -3.7844 58.2685 13.5307 65.1788L14.0673 65.4013L14.6083 65.6146C31.8279 72.6839 39.0122 59.0131 33.6195 46.6952Z" fill="white"/>
<path d="M23.3159 68.0074C20.8787 68.0074 17.9367 67.458 14.4264 66.0142C14.3037 65.9597 14.1764 65.9143 14.0536 65.8644L13.7353 65.7327L13.3534 65.5783C3.18165 61.5193 1.64474 55.4126 1.6311 52.139C1.6311 46.4047 6.14177 40.7066 12.9032 37.9506C15.4223 36.9245 15.2495 35.3173 14.963 32.6521C14.772 30.8769 14.5356 28.6657 15.2495 26.2276C15.6961 24.6741 16.5309 23.2594 17.6755 22.1166C18.8201 20.9737 20.2368 20.1401 21.7926 19.6941C21.8619 19.6739 21.935 19.6704 22.0059 19.684C22.0767 19.6975 22.1434 19.7277 22.2002 19.7721C22.2571 19.8165 22.3026 19.8737 22.3329 19.9391C22.3633 20.0045 22.3775 20.0761 22.3746 20.1481L22.3519 20.6249C22.0973 23.5897 22.9385 25.6192 24.8482 26.6998C26.5488 27.6532 29.1679 27.853 32.2144 27.2582C34.8426 26.7497 37.2161 25.7509 38.2028 25.029C38.324 24.9391 38.4757 24.9001 38.6252 24.9205C38.7748 24.9409 38.9105 25.0189 39.0031 25.1379C40.011 26.4293 40.8328 27.8552 41.4449 29.374C42.5589 32.2026 42.5589 34.7179 41.4449 36.8383C40.1899 39.2128 38.1847 40.5931 36.5705 41.7009C34.2333 43.3127 33.0556 44.2571 34.0423 46.5136C36.9706 53.1924 36.2385 60.4342 32.2235 64.5295C30.7139 66.0596 27.8947 68.0074 23.3159 68.0074ZM21.4289 20.7883C20.1578 21.2608 19.0154 22.0245 18.0938 23.0181C17.1722 24.0117 16.497 25.2074 16.1225 26.5091C15.4586 28.7792 15.6678 30.7906 15.8678 32.5795C16.1498 35.2355 16.3953 37.5329 13.2488 38.8133C6.8238 41.4285 2.52232 46.7906 2.54051 52.1572C2.54051 57.4194 6.51917 61.8962 13.6944 64.7565L14.099 64.9245L14.3764 65.038L14.772 65.1969C21.9109 68.1345 27.8766 67.685 31.5642 63.9211C35.3246 60.0891 35.9793 53.2514 33.2011 46.9041C31.8688 43.8576 33.8968 42.4592 36.0476 41.0017C37.6572 39.8939 39.4806 38.6362 40.631 36.4614C42.8363 32.2889 39.4215 27.2537 38.4757 25.987C35.9794 27.5988 28.645 29.9143 24.4026 27.5352C22.1973 26.2367 21.197 23.9892 21.4289 20.7611V20.7883Z" fill="#543AE8"/>
<path d="M31.5636 36.2274L22.2783 32.4626C22.2132 32.4362 22.1389 32.4675 22.1124 32.5326L20.8482 35.6413C20.8218 35.7064 20.8532 35.7806 20.9183 35.807L30.2036 39.5718C30.2688 39.5982 30.3431 39.5669 30.3695 39.5018L31.6337 36.3931C31.6602 36.328 31.6288 36.2538 31.5636 36.2274Z" fill="#543AE8"/>
<path d="M30.2729 39.744C30.2353 39.7508 30.1968 39.7508 30.1592 39.744L20.8742 35.9801C20.8007 35.9499 20.7421 35.8919 20.7114 35.8187C20.6808 35.7455 20.6804 35.6631 20.7105 35.5896L21.9745 32.4841C21.989 32.4479 22.0105 32.415 22.0379 32.3871C22.0652 32.3593 22.0978 32.3371 22.1337 32.3219C22.1696 32.3068 22.2082 32.2988 22.2472 32.2986C22.2862 32.2984 22.3249 32.3059 22.361 32.3206L31.6461 36.0845C31.6827 36.0985 31.7161 36.1197 31.7443 36.1469C31.7725 36.1741 31.795 36.2067 31.8102 36.2427C31.8255 36.2787 31.8334 36.3175 31.8333 36.3566C31.8332 36.3958 31.8252 36.4345 31.8097 36.4705L30.5502 39.576C30.5356 39.613 30.5135 39.6466 30.4854 39.6747C30.4572 39.7028 30.4236 39.7249 30.3865 39.7395C30.3494 39.7494 30.3106 39.7509 30.2729 39.744ZM21.0288 35.6578L30.2501 39.4035L31.4778 36.3751L22.2746 32.643L21.0288 35.6578Z" fill="#543AE8"/>
<path d="M27.2528 47.1687L17.7315 43.3083L16.3715 46.6526L25.8928 50.5131L27.2528 47.1687Z" fill="#543AE8"/>
<path d="M25.9123 50.6725H25.8486L16.3271 46.8133C16.3066 46.805 16.288 46.7928 16.2723 46.7772C16.2567 46.7615 16.2444 46.7429 16.2362 46.7225C16.2201 46.68 16.2201 46.6332 16.2362 46.5908L17.6003 43.2491C17.6184 43.208 17.6515 43.1752 17.6928 43.1575C17.7342 43.1398 17.7808 43.1385 17.8231 43.1538L27.3446 47.013C27.3663 47.0212 27.3861 47.034 27.4026 47.0504C27.4191 47.0669 27.4318 47.0866 27.4401 47.1084C27.4491 47.1283 27.4538 47.15 27.4538 47.1719C27.4538 47.1939 27.4491 47.2155 27.4401 47.2355L26.0759 50.5817C26.0603 50.6109 26.0365 50.6351 26.0075 50.6512C25.9784 50.6673 25.9454 50.6747 25.9123 50.6725ZM16.6136 46.5499L25.8213 50.3002L27.049 47.2718L17.8458 43.5397L16.6136 46.5499Z" fill="#543AE8"/>
<path d="M14.6119 51.6554L23.2063 55.1401C23.2932 55.1753 23.3722 55.2272 23.439 55.293C23.5057 55.3587 23.5588 55.4369 23.5953 55.5231C23.6318 55.6094 23.6509 55.7019 23.6516 55.7955C23.6522 55.8891 23.6344 55.982 23.5991 56.0687L23.2707 56.8764C23.258 56.9076 23.2334 56.9325 23.2023 56.9457C23.1712 56.9588 23.1361 56.959 23.1048 56.9463L13.9669 53.2413C13.7915 53.1702 13.6516 53.0324 13.5779 52.8583C13.5042 52.6841 13.5029 52.4879 13.5741 52.3127L13.6819 52.0477C13.7531 51.8725 13.8911 51.7328 14.0655 51.6592C14.2399 51.5856 14.4365 51.5843 14.6119 51.6554Z" fill="#543AE8"/>
<path d="M23.1749 57.1106C23.1373 57.1171 23.0989 57.1171 23.0613 57.1106L13.9263 53.4058C13.7128 53.3134 13.5429 53.1428 13.4516 52.9291C13.3602 52.7154 13.3544 52.4749 13.4352 52.2571L13.5443 51.9892C13.6377 51.7758 13.8097 51.6063 14.0246 51.5159C14.2396 51.4255 14.4811 51.421 14.6993 51.5034L23.2932 54.9858C23.5094 55.0767 23.6821 55.2475 23.7751 55.4625C23.82 55.5697 23.8432 55.6846 23.8432 55.8008C23.8432 55.9169 23.82 56.0319 23.7751 56.139L23.4477 56.9472C23.4222 56.9972 23.3831 57.0391 23.3348 57.068C23.2866 57.0969 23.2312 57.1117 23.1749 57.1106ZM14.3537 51.7803C14.2456 51.7796 14.1397 51.8112 14.0498 51.8711C13.9598 51.931 13.8899 52.0164 13.849 52.1163L13.7399 52.3842C13.6859 52.5179 13.6871 52.6675 13.7434 52.8002C13.7996 52.933 13.9063 53.0381 14.04 53.0925L23.134 56.7792L23.4477 56.0119C23.5017 55.8782 23.5005 55.7286 23.4442 55.5959C23.388 55.4631 23.2813 55.358 23.1477 55.3036L14.5538 51.8212C14.4954 51.792 14.4323 51.7736 14.3673 51.7667L14.3537 51.7803Z" fill="#543AE8"/>
<path d="M27.9129 57.6737C28.6814 57.6737 29.3043 57.0517 29.3043 56.2843C29.3043 55.517 28.6814 54.895 27.9129 54.895C27.1445 54.895 26.5215 55.517 26.5215 56.2843C26.5215 57.0517 27.1445 57.6737 27.9129 57.6737Z" fill="#543AE8"/>
<path d="M27.8948 57.7327C27.708 57.7315 27.5231 57.6961 27.3491 57.6283C27.083 57.5211 26.8547 57.3374 26.6931 57.1006C26.5315 56.8638 26.4439 56.5844 26.4414 56.2979C26.4389 56.0113 26.5215 55.7305 26.6789 55.4909C26.8363 55.2512 27.0613 55.0636 27.3255 54.9517C27.5897 54.8399 27.8812 54.8088 28.1632 54.8624C28.4451 54.9159 28.7047 55.0518 28.9093 55.2528C29.1138 55.4538 29.2541 55.7109 29.3122 55.9915C29.3704 56.2721 29.3439 56.5636 29.2361 56.8292C29.1277 57.0958 28.9422 57.3241 28.7033 57.485C28.4644 57.646 28.1829 57.7322 27.8948 57.7327ZM27.8948 54.954C27.5626 54.9534 27.2421 55.0762 26.9957 55.2986C26.7492 55.5211 26.5945 55.8271 26.5618 56.1572C26.529 56.4872 26.6205 56.8177 26.8183 57.0841C27.0162 57.3505 27.3064 57.5338 27.6322 57.5983C27.958 57.6628 28.2962 57.6038 28.5809 57.4329C28.8656 57.262 29.0764 56.9914 29.1721 56.6738C29.2679 56.3562 29.2418 56.0144 29.099 55.7149C28.9562 55.4155 28.7068 55.1798 28.3995 55.0539C28.2395 54.9877 28.068 54.9538 27.8948 54.954Z" fill="#543AE8"/>
<path d="M27.6492 62.6907C28.4176 62.6907 29.0406 62.0687 29.0406 61.3014C29.0406 60.5341 28.4176 59.912 27.6492 59.912C26.8808 59.912 26.2578 60.5341 26.2578 61.3014C26.2578 62.0687 26.8808 62.6907 27.6492 62.6907Z" fill="#543AE8"/>
<path d="M27.6492 62.7497C27.4634 62.7491 27.2796 62.7121 27.1081 62.6408C26.8435 62.5328 26.6169 62.349 26.4569 62.1126C26.2969 61.8761 26.2106 61.5976 26.209 61.3123C26.2074 61.0269 26.2905 60.7475 26.4479 60.5092C26.6052 60.271 26.8298 60.0847 27.0931 59.9738C27.3564 59.8629 27.6468 59.8324 27.9275 59.8862C28.2081 59.94 28.4666 60.0756 28.6701 60.276C28.8736 60.4763 29.0131 60.7324 29.071 61.0119C29.1288 61.2914 29.1024 61.5817 28.9951 61.8462C28.8864 62.1135 28.7002 62.3424 28.4604 62.5033C28.2206 62.6643 27.9382 62.7501 27.6492 62.7497ZM27.6492 59.9711C27.318 59.9723 26.9991 60.0966 26.7548 60.3198C26.5104 60.5431 26.3581 60.8492 26.3275 61.1785C26.2969 61.5078 26.3902 61.8366 26.5893 62.101C26.7884 62.3653 27.0789 62.5461 27.4042 62.6081C27.7296 62.6701 28.0664 62.6089 28.3489 62.4364C28.6315 62.2639 28.8396 61.9925 28.9327 61.6751C29.0257 61.3577 28.9971 61.0171 28.8522 60.7197C28.7074 60.4223 28.4568 60.1894 28.1494 60.0664C27.9915 60.0041 27.8234 59.9718 27.6537 59.9711H27.6492Z" fill="#543AE8"/>
<path d="M36.2249 7.93475L39.1941 9.14247L28.545 34.9313L25.5757 33.7282L36.2249 7.93475Z" fill="white"/>
<path d="M28.8042 35.5215L24.9938 33.9778L35.9885 7.349L39.7989 8.8927L28.8042 35.5215ZM26.1805 33.4784L28.3085 34.341L38.6076 9.36944L36.4841 8.50678L26.1805 33.4784Z" fill="#543AE8"/>
<path d="M40.1718 64.9745C40.1718 63.6896 41.2585 62.7043 42.7045 62.7043C43.1063 62.6824 43.5075 62.7576 43.874 62.9236C44.2406 63.0896 44.5615 63.3415 44.8097 63.6578C44.8677 63.7455 44.9009 63.8473 44.9059 63.9522C44.9109 64.0572 44.8876 64.1616 44.8383 64.2545C44.789 64.3474 44.7156 64.4253 44.6258 64.4801C44.5359 64.5348 44.433 64.5645 44.3277 64.5659H43.9594C43.8714 64.5645 43.7849 64.5434 43.7062 64.5041C43.6275 64.4648 43.5586 64.4083 43.5047 64.3388C43.4006 64.2206 43.2716 64.1268 43.127 64.064C42.9824 64.0012 42.8257 63.9711 42.6681 63.9756C42.5364 63.9675 42.4045 63.9866 42.2806 64.0316C42.1566 64.0767 42.0434 64.1468 41.9478 64.2376C41.8522 64.3283 41.7764 64.4378 41.7251 64.5591C41.6737 64.6804 41.648 64.811 41.6495 64.9427C41.6483 65.0738 41.6732 65.2039 41.7228 65.3253C41.7723 65.4468 41.8456 65.5571 41.9382 65.6501C42.0309 65.743 42.1411 65.8166 42.2625 65.8667C42.3839 65.9167 42.514 65.9422 42.6453 65.9416C42.8082 65.9563 42.9721 65.928 43.1206 65.8594C43.269 65.7909 43.3968 65.6846 43.4911 65.5511H42.6544V64.8292H44.3277C44.4505 64.8449 44.5679 64.8889 44.6706 64.9578C44.7733 65.0268 44.8585 65.1186 44.9194 65.2262C44.9803 65.3337 45.0153 65.454 45.0215 65.5774C45.0277 65.7008 45.005 65.8239 44.9552 65.937C44.7478 66.3494 44.4254 66.6931 44.0269 66.9267C43.6284 67.1603 43.1707 67.2739 42.709 67.2537C41.2449 67.2537 40.1718 66.2594 40.1718 64.9745Z" fill="white"/>
<path d="M49.5568 66.7361H47.838L47.7107 67.1901H46.8513C46.7596 67.1899 46.6692 67.1683 46.5874 67.1269C46.5056 67.0855 46.4346 67.0255 46.3803 66.9517C46.3259 66.878 46.2896 66.7926 46.2742 66.7023C46.2589 66.612 46.265 66.5194 46.292 66.4319L47.3151 63.181C47.3534 63.0628 47.428 62.9597 47.5285 62.8863C47.6289 62.8129 47.75 62.7731 47.8744 62.7724H49.525C49.6494 62.7731 49.7704 62.8129 49.8709 62.8863C49.9713 62.9597 50.0459 63.0628 50.0842 63.181L51.1073 66.4319C51.1343 66.5194 51.1404 66.612 51.1251 66.7023C51.1098 66.7926 51.0734 66.878 51.0191 66.9517C50.9647 67.0255 50.8937 67.0855 50.8119 67.1269C50.7301 67.1683 50.6397 67.1899 50.548 67.1901H49.6886L49.5568 66.7361ZM48.7019 65.5556C48.7624 65.5552 48.8219 65.5408 48.8759 65.5135C48.9298 65.4863 48.9767 65.4469 49.0128 65.3985C49.0489 65.3501 49.0733 65.294 49.0841 65.2346C49.0949 65.1752 49.0917 65.1141 49.0748 65.0562L48.752 63.9302H48.6428L48.3245 65.0562C48.3077 65.1141 48.3045 65.1752 48.3152 65.2346C48.326 65.294 48.3504 65.3501 48.3865 65.3985C48.4227 65.4469 48.4695 65.4863 48.5235 65.5135C48.5774 65.5408 48.6369 65.5552 48.6974 65.5556H48.7019Z" fill="white"/>
<path d="M54.2038 65.9007L53.931 66.2094V66.5999C53.931 66.6766 53.9158 66.7525 53.8863 66.8233C53.8568 66.8941 53.8135 66.9584 53.759 67.0124C53.7044 67.0664 53.6397 67.1092 53.5686 67.1381C53.4974 67.167 53.4213 67.1816 53.3444 67.181H52.9034C52.749 67.181 52.601 67.1198 52.4919 67.0108C52.3827 66.9018 52.3214 66.754 52.3214 66.5999V63.349C52.3208 63.2723 52.3354 63.1962 52.3644 63.1252C52.3934 63.0542 52.4361 62.9896 52.4902 62.9351C52.5443 62.8807 52.6087 62.8375 52.6796 62.808C52.7505 62.7785 52.8266 62.7633 52.9034 62.7633H53.3581C53.5137 62.7633 53.6629 62.825 53.7729 62.9349C53.8829 63.0447 53.9447 63.1937 53.9447 63.349V64.2026H53.9901L54.9768 62.9812C55.0316 62.9134 55.1009 62.8587 55.1796 62.821C55.2582 62.7833 55.3443 62.7636 55.4315 62.7633H55.6316C55.7446 62.7615 55.8558 62.7923 55.9517 62.852C56.0476 62.9117 56.1242 62.9979 56.1722 63.1C56.2202 63.2022 56.2377 63.316 56.2224 63.4279C56.2072 63.5397 56.1599 63.6448 56.0863 63.7304L55.5316 64.3751C55.445 64.4751 55.3951 64.6015 55.3901 64.7336C55.3852 64.8656 55.4254 64.9954 55.5043 65.1016L56.3546 66.2503C56.4115 66.3361 56.4448 66.4354 56.451 66.5381C56.4573 66.6409 56.4363 66.7435 56.3902 66.8356C56.3441 66.9276 56.2745 67.0059 56.1884 67.0626C56.1023 67.1193 56.0028 67.1523 55.8999 67.1583H55.477C55.388 67.1547 55.301 67.1312 55.2223 67.0896C55.1436 67.0479 55.0753 66.9892 55.0223 66.9177L54.2766 65.878L54.2038 65.9007Z" fill="white"/>
<path d="M58.0642 65.1924V63.349C58.0636 63.2723 58.0782 63.1962 58.1072 63.1252C58.1362 63.0542 58.179 62.9896 58.2331 62.9351C58.2872 62.8807 58.3515 62.8375 58.4225 62.808C58.4934 62.7785 58.5694 62.7633 58.6463 62.7633H59.0737C59.2292 62.7633 59.3784 62.825 59.4884 62.9348C59.5985 63.0447 59.6602 63.1937 59.6602 63.349V65.1651C59.6458 65.2751 59.6561 65.387 59.6902 65.4925C59.7244 65.5981 59.7816 65.6948 59.8578 65.7756C59.9339 65.8564 60.0271 65.9193 60.1305 65.9598C60.234 66.0002 60.3451 66.0173 60.456 66.0096C60.9607 66.0096 61.2335 65.719 61.2335 65.1651V63.349C61.2335 63.1937 61.2953 63.0447 61.4053 62.9348C61.5153 62.825 61.6645 62.7633 61.8201 62.7633H62.2475C62.3243 62.7633 62.4004 62.7785 62.4713 62.808C62.5422 62.8375 62.6066 62.8807 62.6607 62.9351C62.7148 62.9896 62.7576 63.0542 62.7865 63.1252C62.8155 63.1962 62.8301 63.2723 62.8295 63.349V65.1924C62.8295 66.6816 61.6973 67.2446 60.4241 67.2446C59.151 67.2446 58.0642 66.6816 58.0642 65.1924Z" fill="white"/>
<path d="M64.0345 66.5862C64.0381 66.4333 64.1015 66.2878 64.2111 66.1809C64.3207 66.0739 64.4679 66.0141 64.6211 66.0141H66.5445C66.7536 66.0141 66.8582 65.9279 66.8582 65.7826C66.8582 65.6373 66.7536 65.5556 66.5354 65.5556H65.4032C65.2142 65.567 65.0249 65.539 64.8473 65.4734C64.6697 65.4077 64.5077 65.3059 64.3717 65.1744C64.2357 65.0429 64.1286 64.8845 64.0573 64.7093C63.9859 64.5342 63.9518 64.3462 63.9572 64.1572C63.9572 63.1356 64.7166 62.7633 65.4805 62.7633H67.7176C67.8732 62.7633 68.0224 62.825 68.1324 62.9348C68.2424 63.0447 68.3042 63.1937 68.3042 63.349C68.3042 63.4257 68.289 63.5017 68.2594 63.5725C68.2299 63.6433 68.1866 63.7075 68.1321 63.7615C68.0776 63.8156 68.0129 63.8583 67.9417 63.8872C67.8706 63.9162 67.7944 63.9308 67.7176 63.9302H65.867C65.6851 63.9302 65.5532 63.9937 65.5532 64.1526C65.5532 64.3115 65.6851 64.3842 65.867 64.3842H66.931C67.8404 64.3842 68.4542 64.8836 68.4542 65.7735C68.45 65.9708 68.4053 66.1652 68.3229 66.3445C68.2404 66.5239 68.1221 66.6845 67.9751 66.8164C67.828 66.9483 67.6555 67.0487 67.4681 67.1114C67.2807 67.1741 67.0824 67.1978 66.8855 67.181H64.612C64.5342 67.181 64.4572 67.1656 64.3854 67.1356C64.3136 67.1056 64.2486 67.0616 64.194 67.0063C64.1394 66.9509 64.0964 66.8853 64.0674 66.8132C64.0385 66.741 64.0242 66.6639 64.0254 66.5862H64.0345Z" fill="white"/>
<path d="M69.6364 65.1924V63.349C69.6364 63.1937 69.6982 63.0447 69.8082 62.9348C69.9182 62.825 70.0674 62.7633 70.223 62.7633H70.6368C70.7136 62.7633 70.7896 62.7785 70.8605 62.808C70.9314 62.8375 70.9958 62.8807 71.0499 62.9351C71.104 62.9896 71.1468 63.0542 71.1758 63.1252C71.2048 63.1962 71.2194 63.2723 71.2188 63.349V65.1651C71.2043 65.2755 71.2146 65.3878 71.249 65.4937C71.2834 65.5996 71.341 65.6966 71.4177 65.7775C71.4944 65.8584 71.5881 65.9212 71.6922 65.9613C71.7962 66.0015 71.9078 66.018 72.0191 66.0096C72.5238 66.0096 72.7966 65.719 72.7966 65.1651V63.349C72.796 63.2723 72.8106 63.1962 72.8396 63.1252C72.8686 63.0542 72.9113 62.9896 72.9655 62.9351C73.0196 62.8807 73.0839 62.8375 73.1548 62.808C73.2257 62.7785 73.3018 62.7633 73.3786 62.7633H73.8197C73.9753 62.7633 74.1244 62.825 74.2345 62.9348C74.3445 63.0447 74.4062 63.1937 74.4062 63.349V65.1924C74.4062 66.6816 73.274 67.2446 72.0009 67.2446C70.7277 67.2446 69.6364 66.6816 69.6364 65.1924Z" fill="white"/>
<path d="M76.3661 63.9211H76.116C76.0392 63.9217 75.963 63.9071 75.8918 63.8782C75.8207 63.8493 75.756 63.8066 75.7015 63.7525C75.647 63.6985 75.6037 63.6342 75.5742 63.5634C75.5446 63.4926 75.5294 63.4167 75.5294 63.34C75.5294 63.1846 75.5912 63.0357 75.7012 62.9258C75.8112 62.816 75.9604 62.7543 76.116 62.7543H79.3807C79.4576 62.7543 79.5336 62.7695 79.6045 62.7989C79.6754 62.8284 79.7398 62.8716 79.7939 62.9261C79.848 62.9805 79.8908 63.0452 79.9198 63.1162C79.9488 63.1872 79.9634 63.2633 79.9628 63.34C79.9628 63.4941 79.9014 63.6419 79.7923 63.7509C79.6831 63.8599 79.5351 63.9211 79.3807 63.9211H79.1307C78.9751 63.9211 78.8259 63.9828 78.7159 64.0927C78.6059 64.2025 78.5441 64.3515 78.5441 64.5068V66.5908C78.5441 66.745 78.4828 66.8928 78.3736 67.0018C78.2645 67.1108 78.1164 67.172 77.9621 67.172H77.5346C77.4578 67.1726 77.3817 67.158 77.3105 67.129C77.2394 67.1001 77.1747 67.0574 77.1202 67.0034C77.0656 66.9493 77.0224 66.8851 76.9928 66.8143C76.9633 66.7435 76.9481 66.6675 76.9481 66.5908V64.5068C76.9487 64.4301 76.9341 64.3541 76.9051 64.283C76.8761 64.212 76.8333 64.1474 76.7792 64.0929C76.7251 64.0385 76.6608 63.9953 76.5899 63.9658C76.5189 63.9363 76.4429 63.9211 76.3661 63.9211Z" fill="white"/>
<path d="M84.2779 66.7361H82.5591L82.4318 67.1901H81.5724C81.4807 67.1899 81.3903 67.1683 81.3085 67.1269C81.2267 67.0855 81.1558 67.0255 81.1014 66.9517C81.047 66.878 81.0107 66.7926 80.9954 66.7023C80.98 66.612 80.9861 66.5194 81.0132 66.4319L82.0362 63.181C82.0745 63.0628 82.1492 62.9597 82.2496 62.8863C82.35 62.8129 82.4711 62.7731 82.5955 62.7724H84.2779C84.4024 62.7731 84.5234 62.8129 84.6238 62.8863C84.7243 62.9597 84.7989 63.0628 84.8372 63.181L85.8603 66.4319C85.8873 66.5194 85.8934 66.612 85.8781 66.7023C85.8627 66.7926 85.8264 66.878 85.772 66.9517C85.7176 67.0255 85.6467 67.0855 85.5649 67.1269C85.4831 67.1683 85.3927 67.1899 85.301 67.1901H84.4416L84.2779 66.7361ZM83.4231 65.5556C83.4835 65.5552 83.5431 65.5408 83.597 65.5135C83.6509 65.4863 83.6978 65.4469 83.7339 65.3985C83.7701 65.3501 83.7945 65.294 83.8052 65.2346C83.816 65.1752 83.8128 65.1141 83.7959 65.0562L83.4731 63.9302H83.3685L83.0502 65.0562C83.0333 65.1141 83.0302 65.1752 83.0409 65.2346C83.0517 65.294 83.0761 65.3501 83.1122 65.3985C83.1483 65.4469 83.1952 65.4863 83.2491 65.5135C83.3031 65.5408 83.3626 65.5552 83.4231 65.5556Z" fill="white"/>
<path d="M76.9344 41.5783L68.0041 50.1231C67.9871 50.1403 67.9752 50.1619 67.9696 50.1854C67.964 50.2089 67.9651 50.2335 67.9726 50.2565C67.9801 50.2795 67.9938 50.2999 68.0122 50.3157C68.0306 50.3314 68.0529 50.3417 68.0768 50.3456L73.5333 51.122C73.5509 51.1244 73.5689 51.1233 73.5861 51.1186C73.6033 51.1139 73.6193 51.1058 73.6333 51.0947L75.543 49.5283C75.5641 49.5129 75.5896 49.5045 75.6158 49.5045C75.642 49.5045 75.6675 49.5129 75.6886 49.5283L82.3545 53.3876C82.3723 53.3991 82.387 53.4149 82.3971 53.4336C82.4073 53.4522 82.4126 53.4731 82.4126 53.4943C82.4126 53.5155 82.4073 53.5364 82.3971 53.555C82.387 53.5737 82.3723 53.5895 82.3545 53.601L75.2793 59.29C75.2583 59.3065 75.243 59.3292 75.2357 59.3548C75.2283 59.3805 75.2292 59.4078 75.2382 59.433C75.2473 59.4581 75.264 59.4797 75.2861 59.4948C75.3082 59.5099 75.3344 59.5176 75.3612 59.517H84.0687C84.0897 59.5165 84.1102 59.5109 84.1284 59.5006C84.1467 59.4903 84.1621 59.4756 84.1733 59.458L92.5217 46.8995C92.5408 46.8706 92.5477 46.8353 92.5409 46.8013C92.534 46.7673 92.5141 46.7373 92.4853 46.7179L83.0184 40.7656C83.0054 40.7601 82.9915 40.7573 82.9774 40.7573C82.9634 40.7573 82.9495 40.7601 82.9365 40.7656L77.0254 41.542C76.9916 41.5424 76.9592 41.5553 76.9344 41.5783Z" fill="white"/>
<path d="M75.3612 59.9711C75.2401 59.9721 75.1218 59.9354 75.0225 59.8661C74.9233 59.7969 74.8482 59.6984 74.8077 59.5845C74.7672 59.4706 74.7632 59.3469 74.7964 59.2306C74.8296 59.1144 74.8983 59.0113 74.9929 58.9359L81.6997 53.5284L75.6386 50.0187L73.9061 51.4444C73.8436 51.4964 73.7707 51.5346 73.6924 51.5565C73.614 51.5784 73.5319 51.5835 73.4514 51.5715L67.995 50.7951C67.8869 50.7791 67.7855 50.7331 67.7021 50.6626C67.6187 50.592 67.5568 50.4996 67.5232 50.3957C67.4897 50.2919 67.4858 50.1807 67.5121 50.0748C67.5384 49.9689 67.5939 49.8724 67.6722 49.7963L76.598 41.2514C76.6885 41.164 76.805 41.1082 76.9299 41.0925L82.8411 40.3161C82.974 40.2979 83.1092 40.3268 83.223 40.3979L92.6899 46.3275C92.7556 46.3694 92.8122 46.4239 92.8567 46.4878C92.9012 46.5517 92.9326 46.6237 92.9491 46.6998C92.9678 46.777 92.9701 46.8572 92.956 46.9354C92.9419 47.0136 92.9117 47.088 92.8672 47.1538L84.5189 59.7168C84.4654 59.7955 84.3936 59.8602 84.3097 59.9052C84.2258 59.9503 84.1322 59.9745 84.0369 59.9756L75.3612 59.9711ZM75.6067 49.0426C75.7094 49.0429 75.81 49.0711 75.8977 49.1243L82.5682 52.9835C82.6496 53.0315 82.7181 53.0984 82.768 53.1785C82.8179 53.2586 82.8477 53.3495 82.8549 53.4436C82.862 53.5377 82.8463 53.6321 82.8091 53.7188C82.7718 53.8055 82.7142 53.8819 82.641 53.9416L76.2751 59.063H83.8823L91.9487 46.9268L82.8547 41.2333L77.1482 41.9824L68.818 49.9915L73.4514 50.6544L75.2702 49.1743C75.3662 49.0969 75.4837 49.0509 75.6067 49.0426Z" fill="white"/>
<path d="M79.2761 46.4046L85.0645 49.7963C85.0924 49.8137 85.126 49.8196 85.1582 49.8129C85.1904 49.8061 85.2188 49.7871 85.2373 49.7599L86.2467 48.3434C86.2663 48.315 86.2739 48.28 86.2679 48.2461C86.262 48.2121 86.2429 48.1818 86.2149 48.1617L81.9543 45.1652C81.9296 45.1503 81.9013 45.1425 81.8725 45.1425L80.1446 45.2741C80.1281 45.2743 80.1118 45.278 80.0969 45.285C80.082 45.2921 80.0688 45.3023 80.0582 45.315L79.2443 46.223C79.234 46.2369 79.2266 46.2527 79.2227 46.2695C79.2187 46.2862 79.2182 46.3037 79.2211 46.3207C79.2241 46.3377 79.2305 46.3539 79.24 46.3683C79.2494 46.3828 79.2617 46.3951 79.2761 46.4046Z" fill="#543AE8"/>
<path d="M85.1145 50.2684C85.0108 50.2699 84.9087 50.2432 84.819 50.1913L79.0306 46.7951C78.9547 46.7529 78.8897 46.6935 78.8407 46.6218C78.7918 46.5501 78.7603 46.468 78.7487 46.3819C78.7346 46.296 78.7404 46.2079 78.7656 46.1245C78.7909 46.0411 78.8348 45.9645 78.8942 45.9007L79.7036 44.9926C79.8051 44.8795 79.9473 44.811 80.0991 44.8019L81.8225 44.6748C81.9567 44.6635 82.0906 44.7005 82.1999 44.7792L86.4604 47.7713C86.5234 47.8148 86.5769 47.8706 86.6175 47.9354C86.6582 48.0002 86.6852 48.0726 86.6969 48.1481C86.713 48.2263 86.7129 48.307 86.6965 48.3851C86.68 48.4632 86.6477 48.5371 86.6014 48.6022L85.5874 50.0187C85.5343 50.0951 85.4637 50.1576 85.3814 50.201C85.2991 50.2445 85.2076 50.2676 85.1145 50.2684ZM79.8218 46.2276L85.0054 49.265L85.6556 48.357L81.7588 45.6328L80.2765 45.7418L79.8218 46.2276Z" fill="#543AE8"/>
<path d="M0.740267 36.643L4.15963 29.5284C4.1687 29.5106 4.17402 29.4911 4.17525 29.4712C4.17648 29.4513 4.17358 29.4314 4.16676 29.4127C4.15993 29.3939 4.14934 29.3768 4.13559 29.3623C4.12185 29.3479 4.10527 29.3364 4.08689 29.3286L2.01797 28.3887C1.99737 28.3784 1.97464 28.3732 1.95161 28.3734C1.92858 28.3735 1.90591 28.3792 1.88549 28.3898C1.86507 28.4005 1.84748 28.4158 1.83415 28.4345C1.82082 28.4533 1.81213 28.4749 1.80881 28.4977L0.4447 36.5522C0.438728 36.5716 0.436643 36.5919 0.438552 36.6121C0.440462 36.6323 0.446342 36.6519 0.455842 36.6698C0.465343 36.6878 0.478275 36.7036 0.493919 36.7165C0.509564 36.7295 0.527604 36.7392 0.547011 36.7452C0.566417 36.7511 0.586812 36.7532 0.607026 36.7513C0.62724 36.7494 0.646877 36.7435 0.664821 36.7341C0.682766 36.7246 0.698669 36.7116 0.711613 36.696C0.724556 36.6804 0.734296 36.6624 0.740267 36.643Z" fill="#FFD12D"/>
<path d="M1.95438 28.3751C1.97538 28.3709 1.99701 28.3709 2.01801 28.3751L4.08693 29.315C4.10532 29.3228 4.1219 29.3342 4.13564 29.3487C4.14938 29.3632 4.15998 29.3803 4.16681 29.3991C4.17363 29.4178 4.17653 29.4377 4.1753 29.4576C4.17407 29.4775 4.16875 29.497 4.15967 29.5147L0.740314 36.6294C0.724082 36.6611 0.697086 36.6859 0.664174 36.6995C0.631262 36.7131 0.594575 36.7146 0.56067 36.7037C0.526765 36.6928 0.497857 36.6702 0.479118 36.6399C0.46038 36.6097 0.453028 36.5737 0.458387 36.5386L1.8225 28.4841C1.8288 28.45 1.84676 28.4192 1.8733 28.3968C1.89983 28.3745 1.93329 28.362 1.968 28.3615M1.968 27.9075C1.82509 27.9077 1.68685 27.9584 1.57781 28.0506C1.46877 28.1429 1.39598 28.2707 1.37234 28.4114L0.00823557 36.4659C-0.006072 36.5516 -0.00169939 36.6394 0.0210574 36.7232C0.0438142 36.8071 0.0844233 36.885 0.140103 36.9517C0.196534 37.0173 0.266219 37.0702 0.344586 37.107C0.422953 37.1438 0.508229 37.1636 0.594806 37.1651C0.708091 37.1656 0.819165 37.1339 0.915004 37.0736C1.01084 37.0132 1.08748 36.9269 1.1359 36.8246L4.55526 29.71C4.62375 29.5681 4.63355 29.405 4.58254 29.256C4.52503 29.1053 4.4108 28.9831 4.26425 28.9154L2.1908 27.9756C2.11243 27.9394 2.02707 27.9208 1.94072 27.9211L1.968 27.9075Z" fill="#FFD12D"/>
<path d="M51.2347 11.4171L54.3267 15.7032L55.5953 14.6907C55.6112 14.6789 55.6243 14.6635 55.6332 14.6457C55.6422 14.628 55.6468 14.6084 55.6468 14.5885C55.6468 14.5687 55.6422 14.5491 55.6332 14.5313C55.6243 14.5136 55.6112 14.4982 55.5953 14.4864L51.2347 11.4171Z" fill="#FFD12D"/>
<path d="M51.2346 11.4171L55.5907 14.4863C55.6067 14.4982 55.6197 14.5136 55.6286 14.5313C55.6376 14.549 55.6422 14.5686 55.6422 14.5885C55.6422 14.6084 55.6376 14.628 55.6286 14.6457C55.6197 14.6634 55.6067 14.6788 55.5907 14.6907L54.3221 15.7031L51.2301 11.4171M51.2301 10.9631C51.1468 10.9635 51.0652 10.9867 50.9942 11.0302C50.9232 11.0738 50.8656 11.1359 50.8276 11.21C50.7896 11.284 50.7726 11.367 50.7787 11.45C50.7847 11.533 50.8135 11.6127 50.8618 11.6804L53.9538 15.9665C53.9898 16.017 54.0359 16.0595 54.089 16.0915C54.1422 16.1235 54.2014 16.1443 54.2629 16.1526H54.3221C54.4262 16.1531 54.5273 16.1178 54.6085 16.0528L55.8726 15.0448C55.9416 14.9908 55.9975 14.9219 56.036 14.8432C56.0746 14.7646 56.0949 14.6783 56.0954 14.5908C56.0911 14.5011 56.0663 14.4136 56.0229 14.3349C55.9796 14.2562 55.9188 14.1884 55.8453 14.1367L51.4938 11.0675C51.4165 11.0136 51.3244 10.9851 51.2301 10.9858V10.9631Z" fill="#FFD12D"/>
<path d="M55.4179 25.6328L70.0048 22.6044C70.0273 22.5988 70.0509 22.5995 70.0731 22.6063C70.0953 22.6131 70.1152 22.6259 70.1306 22.6432C70.1461 22.6605 70.1565 22.6816 70.1608 22.7044C70.165 22.7272 70.163 22.7507 70.1548 22.7724L68.0677 28.7202C68.06 28.7395 68.0573 28.7605 68.0598 28.7811C68.0624 28.8018 68.0702 28.8214 68.0825 28.8382C68.0948 28.855 68.1111 28.8684 68.13 28.8772C68.1489 28.8859 68.1697 28.8897 68.1905 28.8882L80.5448 28.6067C80.5684 28.6058 80.5919 28.6115 80.6124 28.6232C80.633 28.6349 80.6499 28.6521 80.6613 28.6729C80.6726 28.6936 80.6779 28.7171 80.6766 28.7407C80.6753 28.7643 80.6675 28.7871 80.6539 28.8065L78.5032 32.0165C78.4896 32.0347 78.4716 32.0492 78.451 32.0587C78.4303 32.0682 78.4076 32.0724 78.3849 32.0709L62.6295 30.8996C62.6113 30.898 62.5936 30.8926 62.5775 30.8838C62.5615 30.875 62.5475 30.8629 62.5363 30.8484C62.5252 30.8339 62.5172 30.8172 62.5129 30.7994C62.5086 30.7816 62.5081 30.7632 62.5113 30.7452L63.5435 25.8371C63.5476 25.8183 63.5474 25.7988 63.5429 25.7801C63.5384 25.7614 63.5296 25.7439 63.5174 25.729C63.5051 25.7142 63.4896 25.7023 63.4721 25.6943C63.4545 25.6862 63.4354 25.6823 63.4161 25.6828L55.4497 25.8916C55.4327 25.8937 55.4155 25.8924 55.3989 25.8878C55.3824 25.8833 55.367 25.8755 55.3535 25.8649C55.34 25.8544 55.3286 25.8413 55.3202 25.8264C55.3117 25.8115 55.3063 25.7951 55.3043 25.7781C55.3022 25.7611 55.3034 25.7439 55.308 25.7274C55.3126 25.7109 55.3204 25.6954 55.331 25.682C55.3415 25.6685 55.3546 25.6572 55.3695 25.6487C55.3845 25.6403 55.4009 25.6349 55.4179 25.6328Z" fill="#FFD12D"/>
<path d="M78.3941 32.2934L62.6341 31.122C62.5841 31.1179 62.5355 31.1032 62.4916 31.0789C62.4477 31.0547 62.4095 31.0214 62.3794 30.9813C62.3485 30.9411 62.3264 30.8949 62.3146 30.8456C62.3029 30.7963 62.3017 30.745 62.3112 30.6953L63.3207 25.9052L55.477 26.1141C55.3873 26.1204 55.2987 26.0909 55.2306 26.0323C55.1624 25.9736 55.1203 25.8904 55.1133 25.8008C55.1012 25.7121 55.1238 25.6221 55.1762 25.5494C55.2287 25.4768 55.3071 25.427 55.3952 25.4103L69.9821 22.3774C70.0439 22.3648 70.1079 22.3686 70.1678 22.3885C70.2277 22.4085 70.2812 22.4438 70.3231 22.4909C70.3648 22.5378 70.3931 22.5949 70.4051 22.6564C70.4171 22.7179 70.4124 22.7815 70.3913 22.8405L68.3497 28.6567L80.563 28.3752C80.6284 28.3752 80.6927 28.3924 80.7494 28.425C80.8061 28.4577 80.8531 28.5047 80.8858 28.5613C80.9191 28.6169 80.9366 28.6805 80.9366 28.7452C80.9366 28.81 80.9191 28.8735 80.8858 28.9291L78.6896 32.1391C78.6563 32.1865 78.612 32.2252 78.5606 32.2521C78.5092 32.2789 78.4521 32.2931 78.3941 32.2934ZM62.7568 30.6771L78.3668 31.8349L80.3857 28.8337L68.2178 29.1107C68.1578 29.1139 68.0979 29.1019 68.0438 29.0757C67.9897 29.0495 67.9432 29.01 67.9086 28.9609C67.8747 28.9143 67.8527 28.8601 67.8448 28.8031C67.8369 28.7461 67.8432 28.688 67.8632 28.634L69.8911 22.8496L56.5411 25.6328L63.4116 25.4512C63.4655 25.4467 63.5197 25.456 63.5691 25.4783C63.6184 25.5005 63.6612 25.535 63.6935 25.5783C63.7275 25.6196 63.7517 25.6679 63.7643 25.7198C63.7769 25.7717 63.7776 25.8258 63.7663 25.878L62.7568 30.6771Z" fill="#FFD12D"/>
</svg>
