<svg width="18" height="20" viewBox="0 0 18 20" xmlns="http://www.w3.org/2000/svg">
<path d="M13.6429 5C13.6429 7.47239 11.5779 9.5 9 9.5C6.42215 9.5 4.35714 7.47239 4.35714 5C4.35714 2.52761 6.42215 0.5 9 0.5C11.5779 0.5 13.6429 2.52761 13.6429 5ZM11.4652 11.9683C11.8569 11.8354 12.2333 11.75 12.6 11.75C15.3185 11.75 17.5 13.8909 17.5 16.5V18.125C17.5 18.8708 16.8734 19.5 16.0714 19.5H1.92857C1.12661 19.5 0.5 18.8708 0.5 18.125V16.5C0.5 13.8909 2.68152 11.75 5.4 11.75C5.76705 11.75 6.14364 11.8351 6.53503 11.9678C7.3085 12.2302 8.13637 12.375 9 12.375C9.86286 12.375 10.6927 12.2304 11.4652 11.9683Z" />
</svg>
