<svg width="18" height="18" viewBox="0 0 18 18" xmlns="http://www.w3.org/2000/svg">
<path d="M5.1 9C6.74422 9 8.075 7.65804 8.075 6C8.075 4.34196 6.74422 3 5.1 3C3.45578 3 2.125 4.34196 2.125 6C2.125 7.65804 3.45578 9 5.1 9ZM7.14 9.85714H6.91953C6.36703 10.125 5.75344 10.2857 5.1 10.2857C4.44656 10.2857 3.83563 10.125 3.28047 9.85714H3.06C1.37062 9.85714 0 11.2393 0 12.9429V13.7143C0 14.4241 0.571094 15 1.275 15H8.925C9.62891 15 10.2 14.4241 10.2 13.7143V12.9429C10.2 11.2393 8.82937 9.85714 7.14 9.85714ZM12.75 9C14.1578 9 15.3 7.84821 15.3 6.42857C15.3 5.00893 14.1578 3.85714 12.75 3.85714C11.3422 3.85714 10.2 5.00893 10.2 6.42857C10.2 7.84821 11.3422 9 12.75 9ZM14.025 9.85714H13.9241C13.5548 9.98571 13.1644 10.0714 12.75 10.0714C12.3356 10.0714 11.9452 9.98571 11.5759 9.85714H11.475C10.9331 9.85714 10.4337 10.0152 9.99547 10.2696C10.6436 10.9741 11.05 11.9089 11.05 12.9429V13.9714C11.05 14.0304 11.0367 14.0866 11.0341 14.1429H15.725C16.4289 14.1429 17 13.567 17 12.8571C17 11.1991 15.6692 9.85714 14.025 9.85714V9.85714Z" />
</svg>
