<svg width="20" height="20" viewBox="0 0 20 20" xmlns="http://www.w3.org/2000/svg">
<path d="M18.75 6.70833C19.0261 6.70833 19.25 6.93219 19.25 7.20833V16.2292C19.25 17.0303 18.9317 17.7987 18.3652 18.3652C17.7987 18.9317 17.0303 19.25 16.2292 19.25H3.77083C2.96966 19.25 2.2013 18.9317 1.63478 18.3652C1.06827 17.7987 0.75 17.0303 0.75 16.2292V7.20833C0.75 6.93219 0.973857 6.70833 1.25 6.70833H18.75ZM3.54307 13.2931L3.86943 13.6194L3.54307 13.2931C3.19535 13.6408 3 14.1124 3 14.6042C3 15.0959 3.19535 15.5675 3.54307 15.9153C3.8908 16.263 4.36241 16.4583 4.85417 16.4583C5.34592 16.4583 5.81754 16.263 6.16526 15.9153C6.51298 15.5675 6.70833 15.0959 6.70833 14.6042C6.70833 14.1124 6.51298 13.6408 6.16526 13.2931C5.81754 12.9454 5.34592 12.75 4.85417 12.75C4.36241 12.75 3.8908 12.9454 3.54307 13.2931ZM10 12.75C9.50824 12.75 9.03663 12.9454 8.68891 13.2931C8.34118 13.6408 8.14583 14.1124 8.14583 14.6042C8.14583 15.0959 8.34118 15.5675 8.68891 15.9153C9.03663 16.263 9.50825 16.4583 10 16.4583C10.4918 16.4583 10.9634 16.263 11.3111 15.9153C11.6588 15.5675 11.8542 15.0959 11.8542 14.6042C11.8542 14.1124 11.6588 13.6408 11.3111 13.2931C10.9634 12.9454 10.4918 12.75 10 12.75ZM4.85417 7.875C4.36241 7.875 3.8908 8.07035 3.54307 8.41807C3.19535 8.7658 3 9.23741 3 9.72917C3 10.2209 3.19535 10.6925 3.54307 11.0403C3.8908 11.388 4.36241 11.5833 4.85417 11.5833C5.34592 11.5833 5.81754 11.388 6.16526 11.0403C6.51298 10.6925 6.70833 10.2209 6.70833 9.72917C6.70833 9.23741 6.51298 8.7658 6.16526 8.41807C5.81754 8.07035 5.34592 7.875 4.85417 7.875ZM10 7.875C9.50824 7.875 9.03663 8.07035 8.68891 8.41807C8.34118 8.7658 8.14583 9.23741 8.14583 9.72917C8.14583 10.2209 8.34118 10.6925 8.68891 11.0403C9.03663 11.388 9.50824 11.5833 10 11.5833C10.4918 11.5833 10.9634 11.388 11.3111 11.0403C11.6588 10.6925 11.8542 10.2209 11.8542 9.72917C11.8542 9.23741 11.6588 8.7658 11.3111 8.41807C10.9634 8.07035 10.4918 7.875 10 7.875ZM15.1458 7.875C14.6541 7.875 14.1825 8.07035 13.8347 8.41807C13.487 8.7658 13.2917 9.23741 13.2917 9.72917C13.2917 10.2209 13.487 10.6925 13.8347 11.0403C14.1825 11.388 14.6541 11.5833 15.1458 11.5833C15.6376 11.5833 16.1092 11.388 16.4569 11.0403C16.8047 10.6925 17 10.2209 17 9.72917C17 9.23741 16.8047 8.7658 16.4569 8.41807C16.1092 8.07035 15.6376 7.875 15.1458 7.875ZM16.2292 0.75C17.0303 0.75 17.7987 1.06827 18.3652 1.63478C18.9317 2.2013 19.25 2.96966 19.25 3.77083C19.25 3.94342 19.1101 4.08333 18.9375 4.08333H1.0625C0.889911 4.08333 0.75 3.94342 0.75 3.77083C0.75 2.96966 1.06827 2.2013 1.63478 1.63478C2.2013 1.06827 2.96966 0.75 3.77083 0.75H16.2292Z" />
</svg>
