<svg width="22" height="22" viewBox="0 0 22 22" xmlns="http://www.w3.org/2000/svg">
<path d="M6.86167 2.33333L1.25 2.33333C0.962686 2.33333 0.687136 2.44746 0.483972 2.65063C0.280807 2.85379 0.166671 3.12934 0.166671 3.41666C0.166671 3.70398 0.280808 3.97953 0.483972 4.1827C0.687136 4.38586 0.962686 4.5 1.25 4.5L6.86167 4.5C7.08939 5.12741 7.50477 5.6695 8.05135 6.05258C8.59793 6.43567 9.24921 6.64118 9.91667 6.64118C10.5841 6.64118 11.2354 6.43567 11.782 6.05258C12.3286 5.6695 12.744 5.12741 12.9717 4.5L20.75 4.5C21.0373 4.5 21.3129 4.38586 21.516 4.18269C21.7192 3.97953 21.8333 3.70398 21.8333 3.41666C21.8333 3.12934 21.7192 2.85379 21.516 2.65063C21.3129 2.44746 21.0373 2.33333 20.75 2.33333L12.9717 2.33333C12.7439 1.70591 12.3286 1.16383 11.782 0.78074C11.2354 0.397653 10.5841 0.192146 9.91667 0.192146C9.24921 0.192146 8.59793 0.397653 8.05135 0.78074C7.50477 1.16383 7.08939 1.70591 6.86167 2.33333ZM11 3.41666C11 3.63093 10.9365 3.84038 10.8174 4.01853C10.6984 4.19668 10.5292 4.33554 10.3312 4.41753C10.1333 4.49953 9.91547 4.52098 9.70532 4.47918C9.49518 4.43738 9.30215 4.3342 9.15064 4.18269C8.99913 4.03119 8.89595 3.83816 8.85415 3.62801C8.81235 3.41787 8.83381 3.20004 8.9158 3.00209C8.9978 2.80414 9.13665 2.63494 9.3148 2.5159C9.49296 2.39686 9.70241 2.33333 9.91667 2.33333C10.204 2.33333 10.4795 2.44746 10.6827 2.65063C10.8859 2.85379 11 3.12934 11 3.41666ZM13.3617 9.91666L1.25 9.91666C0.962687 9.91666 0.687137 10.0308 0.483972 10.234C0.280808 10.4371 0.166671 10.7127 0.166671 11C0.166671 11.2873 0.280808 11.5629 0.483972 11.766C0.687137 11.9692 0.962687 12.0833 1.25 12.0833L13.3617 12.0833C13.5894 12.7107 14.0048 13.2528 14.5514 13.6359C15.0979 14.019 15.7492 14.2245 16.4167 14.2245C17.0841 14.2245 17.7354 14.019 18.282 13.6359C18.8286 13.2528 19.244 12.7107 19.4717 12.0833L20.75 12.0833C21.0373 12.0833 21.3129 11.9692 21.516 11.766C21.7192 11.5629 21.8333 11.2873 21.8333 11C21.8333 10.7127 21.7192 10.4371 21.516 10.234C21.3129 10.0308 21.0373 9.91666 20.75 9.91666L19.4717 9.91666C19.244 9.28925 18.8286 8.74716 18.282 8.36407C17.7354 7.98099 17.0841 7.77548 16.4167 7.77548C15.7492 7.77548 15.0979 7.98099 14.5514 8.36407C14.0048 8.74716 13.5894 9.28925 13.3617 9.91666ZM17.5 11C17.5 11.2143 17.4365 11.4237 17.3174 11.6019C17.1984 11.78 17.0292 11.9189 16.8312 12.0009C16.6333 12.0829 16.4155 12.1043 16.2053 12.0625C15.9952 12.0207 15.8021 11.9175 15.6506 11.766C15.4991 11.6145 15.396 11.4215 15.3542 11.2113C15.3124 11.0012 15.3338 10.7834 15.4158 10.5854C15.4978 10.3875 15.6367 10.2183 15.8148 10.0992C15.993 9.9802 16.2024 9.91666 16.4167 9.91666C16.704 9.91666 16.9795 10.0308 17.1827 10.234C17.3859 10.4371 17.5 10.7127 17.5 11ZM4.695 17.5L1.25 17.5C0.962687 17.5 0.687137 17.6141 0.483973 17.8173C0.280808 18.0205 0.166672 18.296 0.166672 18.5833C0.166672 18.8706 0.280808 19.1462 0.483973 19.3494C0.687137 19.5525 0.962687 19.6667 1.25001 19.6667L4.695 19.6667C4.92273 20.2941 5.3381 20.8362 5.88468 21.2193C6.43127 21.6023 7.08254 21.8078 7.75001 21.8078C8.41747 21.8078 9.06875 21.6023 9.61533 21.2193C10.1619 20.8362 10.5773 20.2941 10.805 19.6667L20.75 19.6667C21.0373 19.6667 21.3129 19.5525 21.516 19.3494C21.7192 19.1462 21.8333 18.8706 21.8333 18.5833C21.8333 18.296 21.7192 18.0205 21.516 17.8173C21.3129 17.6141 21.0373 17.5 20.75 17.5L10.805 17.5C10.5773 16.8726 10.1619 16.3305 9.61533 15.9474C9.06875 15.5643 8.41747 15.3588 7.75 15.3588C7.08254 15.3588 6.43127 15.5643 5.88468 15.9474C5.3381 16.3305 4.92273 16.8726 4.695 17.5ZM8.83334 18.5833C8.83334 18.7976 8.7698 19.007 8.65076 19.1852C8.53173 19.3634 8.36253 19.5022 8.16458 19.5842C7.96663 19.6662 7.7488 19.6876 7.53866 19.6458C7.32851 19.604 7.13548 19.5009 6.98397 19.3494C6.83247 19.1979 6.72929 19.0048 6.68749 18.7947C6.64569 18.5845 6.66714 18.3667 6.74914 18.1688C6.83113 17.9708 6.96998 17.8016 7.14814 17.6826C7.32629 17.5635 7.53574 17.5 7.75001 17.5C8.03732 17.5 8.31287 17.6141 8.51604 17.8173C8.7192 18.0205 8.83334 18.296 8.83334 18.5833Z"/>
</svg>
