<svg width="26" height="26" viewBox="0 0 26 26" fill="none" xmlns="http://www.w3.org/2000/svg">
<path d="M17.0625 9.75H19.0938C19.6325 9.75 20.1491 9.96401 20.5301 10.3449C20.911 10.7259 21.125 11.2425 21.125 11.7812V21.5312C21.125 22.07 20.911 22.5866 20.5301 22.9676C20.1491 23.3485 19.6325 23.5625 19.0938 23.5625H6.90625C6.36753 23.5625 5.85087 23.3485 5.46994 22.9676C5.08901 22.5866 4.875 22.07 4.875 21.5312V11.7812C4.875 11.2425 5.08901 10.7259 5.46994 10.3449C5.85087 9.96401 6.36753 9.75 6.90625 9.75H8.9375M17.0625 6.5L13 2.4375L8.9375 6.5M13 16.3008V2.4375" stroke="white" stroke-width="1.5" stroke-linecap="round" stroke-linejoin="round"/>
</svg>
