<svg width="18" height="18" viewBox="0 0 18 18"  xmlns="http://www.w3.org/2000/svg">
<path d="M8.09329 2.36362C8.17692 2.19425 8.30626 2.05164 8.4667 1.95192C8.62714 1.85221 8.81227 1.79937 9.00117 1.79937C9.19007 1.79937 9.3752 1.85221 9.53564 1.95192C9.69607 2.05164 9.82542 2.19425 9.90904 2.36362L11.6202 5.83087L15.4463 6.38775C15.6333 6.41473 15.8091 6.49352 15.9537 6.6152C16.0983 6.73688 16.2059 6.8966 16.2645 7.07629C16.323 7.25598 16.3301 7.44847 16.2849 7.63197C16.2397 7.81547 16.1441 7.98266 16.0088 8.11462L13.239 10.8135L13.8927 14.6239C13.9247 14.8101 13.9039 15.0016 13.8328 15.1767C13.7616 15.3518 13.6429 15.5034 13.49 15.6145C13.3371 15.7256 13.1562 15.7917 12.9677 15.8053C12.7792 15.8189 12.5907 15.7795 12.4234 15.6915L9.00117 13.8915L5.57892 15.6915C5.41167 15.7795 5.22313 15.8189 5.03464 15.8053C4.84615 15.7917 4.66522 15.7256 4.51234 15.6145C4.35946 15.5034 4.24072 15.3518 4.16956 15.1767C4.09839 15.0016 4.07765 14.8101 4.10967 14.6239L4.76217 10.8135L1.99467 8.1135C1.85975 7.98156 1.76438 7.81454 1.71934 7.63129C1.67429 7.44804 1.68135 7.25584 1.73972 7.07639C1.7981 6.89693 1.90546 6.73737 2.04971 6.61569C2.19395 6.49401 2.36932 6.41506 2.55604 6.38775L6.38104 5.83087L8.09329 2.36362Z" />
</svg>
