<svg viewBox="0 0 18 18" fill="none" xmlns="http://www.w3.org/2000/svg">
<path d="M9 1.5C4.875 1.5 1.5 4.875 1.5 9C1.5 13.125 4.875 16.5 9 16.5C13.125 16.5 16.5 13.125 16.5 9C16.5 4.875 13.125 1.5 9 1.5ZM9 15C5.6925 15 3 12.3075 3 9C3 5.6925 5.6925 3 9 3C12.3075 3 15 5.6925 15 9C15 12.3075 12.3075 15 9 15ZM9.375 5.8125C9.375 5.50184 9.12316 5.25 8.8125 5.25V5.25C8.50184 5.25 8.25 5.50184 8.25 5.8125V8.76728C8.25 9.37799 8.56683 9.94497 9.08694 10.265L11.6652 11.8517C11.933 12.0164 12.2836 11.933 12.4483 11.6652V11.6652C12.6144 11.3954 12.5281 11.0419 12.2564 10.8788L9.375 9.15V5.8125Z" fill="#543AE8"/>
</svg>
