<svg width="18" height="18" viewBox="0 0 18 18" xmlns="http://www.w3.org/2000/svg">
<path d="M6 3.375C5.60218 3.375 5.22064 3.53304 4.93934 3.81434C4.65804 4.09564 4.5 4.47718 4.5 4.875V8.6535L13.5 8.63625V4.875C13.5 4.47718 13.342 4.09564 13.0607 3.81434C12.7794 3.53304 12.3978 3.375 12 3.375H6ZM11.7502 14.625L11.25 13.875H6.75L6.24975 14.625H6C5.20435 14.625 4.44129 14.3089 3.87868 13.7463C3.31607 13.1837 3 12.4206 3 11.625V4.875C3 4.07935 3.31607 3.31629 3.87868 2.75368C4.44129 2.19107 5.20435 1.875 6 1.875L12 1.875C12.7956 1.875 13.5587 2.19107 14.1213 2.75368C14.6839 3.31629 15 4.07935 15 4.875V11.625C15 12.4206 14.6839 13.1837 14.1213 13.7463C13.5587 14.3089 12.7956 14.625 12 14.625H11.7502ZM6 12.375C6.19891 12.375 6.38968 12.296 6.53033 12.1553C6.67098 12.0147 6.75 11.8239 6.75 11.625C6.75 11.4261 6.67098 11.2353 6.53033 11.0947C6.38968 10.954 6.19891 10.875 6 10.875C5.80109 10.875 5.61032 10.954 5.46967 11.0947C5.32902 11.2353 5.25 11.4261 5.25 11.625C5.25 11.8239 5.32902 12.0147 5.46967 12.1553C5.61032 12.296 5.80109 12.375 6 12.375ZM12 12.375C12.1989 12.375 12.3897 12.296 12.5303 12.1553C12.671 12.0147 12.75 11.8239 12.75 11.625C12.75 11.4261 12.671 11.2353 12.5303 11.0947C12.3897 10.954 12.1989 10.875 12 10.875C11.8011 10.875 11.6103 10.954 11.4697 11.0947C11.329 11.2353 11.25 11.4261 11.25 11.625C11.25 11.8239 11.329 12.0147 11.4697 12.1553C11.6103 12.296 11.8011 12.375 12 12.375ZM12 4.125C12.1989 4.125 12.3897 4.20402 12.5303 4.34467C12.671 4.48532 12.75 4.67609 12.75 4.875V7.125C12.75 7.32391 12.671 7.51468 12.5303 7.65533C12.3897 7.79598 12.1989 7.875 12 7.875C11.8011 7.875 11.6103 7.79598 11.4697 7.65533C11.329 7.51468 11.25 7.32391 11.25 7.125V4.875C11.25 4.67609 11.329 4.48532 11.4697 4.34467C11.6103 4.20402 11.8011 4.125 12 4.125ZM6.2355 14.6467L11.7638 14.646L11.973 14.9587C12.0484 15.0718 12.0917 15.2032 12.0982 15.339C12.1048 15.4747 12.0743 15.6097 12.0101 15.7295C11.9458 15.8493 11.8502 15.9493 11.7335 16.019C11.6168 16.0886 11.4834 16.1253 11.3475 16.125H6.6525C6.51665 16.1252 6.38332 16.0884 6.26673 16.0187C6.15013 15.949 6.05467 15.8489 5.99052 15.7292C5.92637 15.6094 5.89595 15.4745 5.90251 15.3388C5.90907 15.2031 5.95236 15.0718 6.02775 14.9587L6.23625 14.6467H6.2355Z" />
</svg>
